<svg id="icon_product_proved" xmlns="http://www.w3.org/2000/svg" width="45.298" height="55.799" viewBox="0 0 45.298 55.799">
  <g id="Group_88" data-name="Group 88" transform="translate(4.487 35.376)">
    <path id="Path_164" data-name="Path 164" d="M1746.886,1128.644l-4.145.592a1,1,0,0,0-.69.395l-2.665,3.355-8.88-15.687.1-.1a2.647,2.647,0,0,0,.69-.79c.1-.1.1-.2.2-.3a10.727,10.727,0,0,0,.592-1.085c.1-.2.1-.3.2-.493a3.458,3.458,0,0,1,4.44-1.48,7.743,7.743,0,0,0,1.381.493c.1,0,.2.1.3.1Z" transform="translate(-1710.563 -1112.564)" fill="#df5757"/>
    <path id="Path_165" data-name="Path 165" d="M1685.341,1117l-8.78,15.589-2.665-3.354a1,1,0,0,0-.69-.395l-4.243-.593,8.585-15.391h.2a5.587,5.587,0,0,0,1.185-.395,3.14,3.14,0,0,1,1.381-.3,3.506,3.506,0,0,1,3.256,2.27,5.314,5.314,0,0,0,.69,1.282c.1.1.1.2.2.3A8.981,8.981,0,0,0,1685.341,1117Z" transform="translate(-1668.963 -1112.168)" fill="#df5757"/>
  </g>
  <g id="Group_89" data-name="Group 89" transform="translate(0 0)">
    <path id="Path_164-2" data-name="Path 164" d="M1700.414,1024.653c0,2.269-3.513,3.955-4.179,6-.689,2.122,1.139,5.546-.146,7.313-1.3,1.784-5.128,1.1-6.912,2.4-1.766,1.286-2.289,5.148-4.411,5.836-2.047.665-4.732-2.13-7-2.13s-4.953,2.8-7,2.13c-2.122-.689-2.645-4.551-4.411-5.836-1.784-1.3-5.614-.611-6.913-2.4-1.285-1.766.542-5.191-.146-7.312-.665-2.048-4.178-3.733-4.178-6s3.514-3.955,4.178-6c.689-2.122-1.139-5.546.146-7.312,1.3-1.784,5.129-1.1,6.913-2.4,1.766-1.286,2.29-5.147,4.411-5.836,2.047-.665,4.732,2.13,7,2.13s4.953-2.8,7-2.13c2.122.689,2.646,4.551,4.412,5.836,1.784,1.3,5.614.612,6.912,2.4,1.285,1.766-.542,5.191.146,7.313C1696.9,1020.7,1700.414,1022.384,1700.414,1024.653Z" transform="translate(-1655.116 -1003.005)" fill="#edba59"/>
  </g>
  <path id="Path_167" data-name="Path 167" d="M1701.075,1052.5l9.631-9.633a3.061,3.061,0,0,1,2.246-1.083,2.7,2.7,0,0,1,2.569,1.617,2.649,2.649,0,0,1-.31,2.9,5.293,5.293,0,0,1-.53.584q-5.649,5.653-11.3,11.3a2.859,2.859,0,0,1-4.579.03c-1.864-1.858-3.74-3.7-5.575-5.586a2.8,2.8,0,0,1,.748-4.651,2.72,2.72,0,0,1,3.191.638c1.146,1.123,2.266,2.259,3.4,3.391C1700.711,1052.167,1700.871,1052.314,1701.075,1052.5Z" transform="translate(-1680.249 -1029.219)" fill="#fff"/>
</svg>
