<svg xmlns="http://www.w3.org/2000/svg" width="118.478" height="112.13" viewBox="0 0 118.478 112.13">
  <g id="icon_sell_step2" transform="translate(-340.084 -1304.526)">
    <path id="Path_167" data-name="Path 167" d="M901.746,1119.033a3.539,3.539,0,0,1-3.537-3.538v-15.163h-9.081A12.044,12.044,0,0,1,877.1,1088.3v-39.483a12.044,12.044,0,0,1,12.031-12.031H970.7a12.044,12.044,0,0,1,12.031,12.031V1088.3a12.044,12.044,0,0,1-12.031,12.031H921.914L904.249,1118A3.535,3.535,0,0,1,901.746,1119.033Zm-12.618-75.169a4.96,4.96,0,0,0-4.954,4.954V1088.3a4.959,4.959,0,0,0,4.954,4.953h12.619a3.539,3.539,0,0,1,3.539,3.539v10.159l12.66-12.66a3.535,3.535,0,0,1,2.5-1.037H970.7a4.959,4.959,0,0,0,4.954-4.953v-39.483a4.96,4.96,0,0,0-4.954-4.954Z" transform="translate(-524.166 267.739)" fill="#fff"/>
    <path id="Path_209" data-name="Path 209" d="M142.559,69.648a15.408,15.408,0,0,0,3.506-10.329l-.058-1.612a10.309,10.309,0,0,0-20.6,0l-.058,1.612a15.409,15.409,0,0,0,3.5,10.327,11.644,11.644,0,0,0-6.414,10.391v5.228a1.457,1.457,0,0,0,1.463,1.45h23.608a1.457,1.457,0,0,0,1.463-1.45V80.04A11.644,11.644,0,0,0,142.559,69.648Z" transform="translate(217.644 1329.941)" fill="#fff"/>
  </g>
</svg>
