<svg xmlns="http://www.w3.org/2000/svg" width="90.841" height="90.842" viewBox="0 0 90.841 90.842">
  <path id="icon_findseller_step2" d="M79.064,69.288a12.283,12.283,0,0,0-8.84,8.781,4.038,4.038,0,0,1-8.014-.707c0-2.907,2.442-7.327,5.773-10.638,3.27-3.23,7.166-5.51,10.374-5.51a4.1,4.1,0,0,1,4.037,4.1A4.05,4.05,0,0,1,79.064,69.288Zm55.491,52.927a8.014,8.014,0,0,1-11.323,11.344l-23.193-23.174a35.339,35.339,0,1,1,11.342-11.343ZM106.618,80.39a25.232,25.232,0,1,0-25.232,25.232A25.241,25.241,0,0,0,106.618,80.39Z" transform="translate(-46.062 -45.065)" fill="#fff" fill-rule="evenodd"/>
</svg>
