<svg xmlns="http://www.w3.org/2000/svg" width="47.56" height="38.577" viewBox="0 0 47.56 38.577">
  <path id="icon_footer_twitter" d="M53.061,40.577c17.967,0,27.744-14.8,27.744-27.744V11.512a21.477,21.477,0,0,0,4.756-5.02,21.934,21.934,0,0,1-5.549,1.585,10.28,10.28,0,0,0,4.228-5.284,24.236,24.236,0,0,1-6.077,2.378A9.436,9.436,0,0,0,71.028,2a9.927,9.927,0,0,0-9.776,9.776,5.151,5.151,0,0,0,.264,2.114,27.318,27.318,0,0,1-20.081-10.3,10.119,10.119,0,0,0-1.321,5.02A10.5,10.5,0,0,0,44.341,16.8a8.907,8.907,0,0,1-4.492-1.321h0a9.657,9.657,0,0,0,7.927,9.512,8.146,8.146,0,0,1-2.642.264,4.5,4.5,0,0,1-1.85-.264,10.01,10.01,0,0,0,9.248,6.87,19.949,19.949,0,0,1-12.154,4.228A7.315,7.315,0,0,1,38,35.821a24.94,24.94,0,0,0,15.061,4.756" transform="translate(-38 -2)" fill="#fff" fill-rule="evenodd"/>
</svg>
