<svg xmlns="http://www.w3.org/2000/svg" width="16.766" height="16.766" viewBox="0 0 16.766 16.766">
  <g id="icon_puton_labelbar" transform="translate(-7.676 -7.676)">
    <circle id="Ellipse_70" data-name="Ellipse 70" cx="1.5" cy="1.5" r="1.5" transform="translate(11 11)" fill="#707070"/>
    <path id="Path_162" data-name="Path 162" d="M20.156,12.342l-7.723-7.73A2.086,2.086,0,0,0,10.952,4H6.085A2.085,2.085,0,0,0,4,6.086v4.866a2.086,2.086,0,0,0,.612,1.474l7.73,7.73a2.085,2.085,0,0,0,2.947,0l4.866-4.866A2.085,2.085,0,0,0,20.156,12.342Zm-11.289-.7a2.781,2.781,0,1,1,2.781-2.781A2.781,2.781,0,0,1,8.866,11.647Z" transform="translate(3.676 3.676)" fill="#707070"/>
  </g>
</svg>
