<svg xmlns="http://www.w3.org/2000/svg" width="145.561" height="112.448" viewBox="0 0 145.561 112.448">
  <g id="icon_findseller_step1" transform="translate(-340.545 -1321.619)">
    <path id="Path_54" data-name="Path 54" d="M9.08,659.006c0,2.335.1,4.675-.024,7a12.572,12.572,0,0,1-3.7,7.971,27.727,27.727,0,0,1-10.512,6.736,54.849,54.849,0,0,1-17.735,3.517,60.423,60.423,0,0,1-19.693-2.2c-5.027-1.461-9.728-3.581-13.58-7.248a13.688,13.688,0,0,1-4.6-10.686c.094-3.432.1-6.87,0-10.3-.144-4.683,1.841-8.32,5.258-11.3,4.239-3.692,9.3-5.745,14.666-7.094a62.227,62.227,0,0,1,20.828-1.527,50.2,50.2,0,0,1,17.493,4.482,23.292,23.292,0,0,1,9.225,7.246,12.431,12.431,0,0,1,2.41,7.544c-.018,1.95,0,3.9,0,5.852Zm-34.949-18.851a44.861,44.861,0,0,0-21.615,4.968,14.547,14.547,0,0,0-5.441,4.546,5.016,5.016,0,0,0,0,6,12.7,12.7,0,0,0,3.9,3.615,36.691,36.691,0,0,0,14.334,4.961,57.775,57.775,0,0,0,15.018.358,44.012,44.012,0,0,0,13.871-3.516A16.128,16.128,0,0,0,.906,656.2a7.614,7.614,0,0,0,1.29-2.875c.41-2.021-.639-3.614-1.975-4.993-3.413-3.522-8.383-5.232-13.019-6.454A53.249,53.249,0,0,0-25.869,640.155ZM2.262,664.394c-12.424,7.772-25.891,8.491-39.877,6.386v3.927c0,1.658.005,1.629,1.613,1.915a59.232,59.232,0,0,0,16.975.5,42.985,42.985,0,0,0,13.3-3.475,18.358,18.358,0,0,0,6.25-4.326A6.073,6.073,0,0,0,2.262,664.394Zm-50.007,3.275c0,1.621-.007,3.129.009,4.637a.631.631,0,0,0,.21.482c.982.5,1.982.969,3.1,1.508,0-1.78.013-3.342-.017-4.9a.731.731,0,0,0-.368-.531C-45.729,668.455-46.673,668.1-47.745,667.668Z" transform="translate(401.315 749.763)" fill="#fff"/>
    <path id="Path_196" data-name="Path 196" d="M9.08,659.006c0,2.335.1,4.675-.024,7a12.572,12.572,0,0,1-3.7,7.971,27.727,27.727,0,0,1-10.512,6.736,54.849,54.849,0,0,1-17.735,3.517,60.423,60.423,0,0,1-19.693-2.2c-5.027-1.461-9.728-3.581-13.58-7.248a13.688,13.688,0,0,1-4.6-10.686c.094-3.432.1-6.87,0-10.3-.144-4.683,1.841-8.32,5.258-11.3,4.239-3.692,9.3-5.745,14.666-7.094a62.227,62.227,0,0,1,20.828-1.527,50.2,50.2,0,0,1,17.493,4.482,23.292,23.292,0,0,1,9.225,7.246,12.431,12.431,0,0,1,2.41,7.544c-.018,1.95,0,3.9,0,5.852Zm-34.949-18.851a44.861,44.861,0,0,0-21.615,4.968,14.547,14.547,0,0,0-5.441,4.546,5.016,5.016,0,0,0,0,6,12.7,12.7,0,0,0,3.9,3.615,36.691,36.691,0,0,0,14.334,4.961,57.775,57.775,0,0,0,15.018.358,44.012,44.012,0,0,0,13.871-3.516A16.128,16.128,0,0,0,.906,656.2a7.614,7.614,0,0,0,1.29-2.875c.41-2.021-.639-3.614-1.975-4.993-3.413-3.522-8.383-5.232-13.019-6.454A53.249,53.249,0,0,0-25.869,640.155ZM2.262,664.394c-12.424,7.772-25.891,8.491-39.877,6.386v3.927c0,1.658.005,1.629,1.613,1.915a59.232,59.232,0,0,0,16.975.5,42.985,42.985,0,0,0,13.3-3.475,18.358,18.358,0,0,0,6.25-4.326A6.073,6.073,0,0,0,2.262,664.394Zm-50.007,3.275c0,1.621-.007,3.129.009,4.637a.631.631,0,0,0,.21.482c.982.5,1.982.969,3.1,1.508,0-1.78.013-3.342-.017-4.9a.731.731,0,0,0-.368-.531C-45.729,668.455-46.673,668.1-47.745,667.668Z" transform="translate(434.367 688.007)" fill="#fff"/>
    <path id="Path_197" data-name="Path 197" d="M9.08,659.006c0,2.335.1,4.675-.024,7a12.572,12.572,0,0,1-3.7,7.971,27.727,27.727,0,0,1-10.512,6.736,54.849,54.849,0,0,1-17.735,3.517,60.423,60.423,0,0,1-19.693-2.2c-5.027-1.461-9.728-3.581-13.58-7.248a13.688,13.688,0,0,1-4.6-10.686c.094-3.432.1-6.87,0-10.3-.144-4.683,1.841-8.32,5.258-11.3,4.239-3.692,9.3-5.745,14.666-7.094a62.227,62.227,0,0,1,20.828-1.527,50.2,50.2,0,0,1,17.493,4.482,23.292,23.292,0,0,1,9.225,7.246,12.431,12.431,0,0,1,2.41,7.544c-.018,1.95,0,3.9,0,5.852Zm-34.949-18.851a44.861,44.861,0,0,0-21.615,4.968,14.547,14.547,0,0,0-5.441,4.546,5.016,5.016,0,0,0,0,6,12.7,12.7,0,0,0,3.9,3.615,36.691,36.691,0,0,0,14.334,4.961,57.775,57.775,0,0,0,15.018.358,44.012,44.012,0,0,0,13.871-3.516A16.128,16.128,0,0,0,.906,656.2a7.614,7.614,0,0,0,1.29-2.875c.41-2.021-.639-3.614-1.975-4.993-3.413-3.522-8.383-5.232-13.019-6.454A53.249,53.249,0,0,0-25.869,640.155ZM2.262,664.394c-12.424,7.772-25.891,8.491-39.877,6.386v3.927c0,1.658.005,1.629,1.613,1.915a59.232,59.232,0,0,0,16.975.5,42.985,42.985,0,0,0,13.3-3.475,18.358,18.358,0,0,0,6.25-4.326A6.073,6.073,0,0,0,2.262,664.394Zm-50.007,3.275c0,1.621-.007,3.129.009,4.637a.631.631,0,0,0,.21.482c.982.5,1.982.969,3.1,1.508,0-1.78.013-3.342-.017-4.9a.731.731,0,0,0-.368-.531C-45.729,668.455-46.673,668.1-47.745,667.668Z" transform="translate(476.988 738.456)" fill="#fff"/>
  </g>
</svg>
