<svg xmlns="http://www.w3.org/2000/svg" width="31.47" height="44.669" viewBox="0 0 31.47 44.669">
  <g id="icon_header_logo" transform="translate(-195.272 -303.411)">
    <path id="Path_1" data-name="Path 1" d="M216.493,307.262a15.747,15.747,0,0,0-7.219-13.232,3.256,3.256,0,0,0,.588-1.877,3.293,3.293,0,0,0-3.3-3.29H194.944a3.292,3.292,0,0,0-3.29,3.29,3.256,3.256,0,0,0,.588,1.877,15.737,15.737,0,0,0,.284,26.643l-2.975,11.736a.9.9,0,0,0,.876,1.124h20.661a.9.9,0,0,0,.872-1.124l-2.975-11.736A15.742,15.742,0,0,0,216.493,307.262Zm-21.549-16.594h11.622a1.487,1.487,0,0,1,1.49,1.486,1.5,1.5,0,0,1-1.418,1.49H194.877a1.489,1.489,0,0,1,.067-2.976Zm3.579,32.171a15.655,15.655,0,0,0,4.465,0v.7c0,2.4-1.129,2.728-2.233,2.728s-2.233-.325-2.233-2.728Zm11.406,8.889H191.587l2.578-10.179a15.515,15.515,0,0,0,2.81.99v1c0,3.718,2.372,4.275,3.78,4.275s3.78-.557,3.78-4.275v-1a15.34,15.34,0,0,0,2.81-.99Zm-1.412-12.9a12.989,12.989,0,0,1-1.624.938,13.145,13.145,0,0,1-2.356.9,7.465,7.465,0,0,1-.774.2c-.252.062-.51.108-.773.15a13.9,13.9,0,0,1-4.465,0c-.263-.042-.521-.088-.773-.15s-.521-.118-.774-.2a13.144,13.144,0,0,1-2.356-.9,13.382,13.382,0,0,1-1.624-.943,13.921,13.921,0,0,1,.764-23.6,3.139,3.139,0,0,0,1.185.226h11.622a3.143,3.143,0,0,0,1.186-.226,13.921,13.921,0,0,1,.764,23.606Z" transform="translate(10.249 14.547)" fill="#fff"/>
    <path id="Path_2" data-name="Path 2" d="M211.028,313.09h-7.044a1.031,1.031,0,0,1-1.031-1.031v-8.714a1.031,1.031,0,1,1,2.063,0v7.683h6.013a1.031,1.031,0,0,1,0,2.062Z" transform="translate(6.45 11.698)" fill="#fff"/>
  </g>
</svg>
