<svg xmlns="http://www.w3.org/2000/svg" width="16.338" height="21.782" viewBox="0 0 16.338 21.782">
  <path id="icon_product_location" d="M-67.814,431.042a7.4,7.4,0,0,1,7.013,4.033,7.767,7.767,0,0,1-.128,8.213c-1.781,2.917-3.7,5.747-5.587,8.6-.827,1.253-1.8,1.241-2.638-.021-1.868-2.819-3.761-5.623-5.557-8.487a7.664,7.664,0,0,1-.249-8.2A7.49,7.49,0,0,1-67.814,431.042ZM-67.84,443.4a4.337,4.337,0,0,0,4.375-4.382,4.341,4.341,0,0,0-4.418-4.341,4.338,4.338,0,0,0-4.334,4.344A4.334,4.334,0,0,0-67.84,443.4Z" transform="translate(76.029 -431.039)"/>
</svg>
