<svg xmlns="http://www.w3.org/2000/svg" width="47.56" height="47.56" viewBox="0 0 47.56 47.56">
  <path id="icon_footer_ig" d="M23.78,4.228c6.341,0,7.134,0,9.512.264a12.255,12.255,0,0,1,4.492.793,9.28,9.28,0,0,1,4.492,4.492,12.255,12.255,0,0,1,.793,4.492c0,2.378.264,3.171.264,9.512s0,7.134-.264,9.512a12.255,12.255,0,0,1-.793,4.492,9.28,9.28,0,0,1-4.492,4.492,12.255,12.255,0,0,1-4.492.793c-2.378,0-3.171.264-9.512.264s-7.134,0-9.512-.264a12.255,12.255,0,0,1-4.492-.793,9.279,9.279,0,0,1-4.492-4.492,12.255,12.255,0,0,1-.793-4.492c0-2.378-.264-3.171-.264-9.512s0-7.134.264-9.512a12.255,12.255,0,0,1,.793-4.492,9.49,9.49,0,0,1,1.85-2.642,4.467,4.467,0,0,1,2.642-1.85,12.255,12.255,0,0,1,4.492-.793c2.378-.264,3.171-.264,9.512-.264M23.78,0c-6.341,0-7.4,0-9.776.264A16.312,16.312,0,0,0,8.191,1.321,10.344,10.344,0,0,0,3.963,3.963,10.344,10.344,0,0,0,1.321,8.191,12.039,12.039,0,0,0,.264,14C0,16.382,0,17.439,0,23.78s0,7.4.264,9.776a16.312,16.312,0,0,0,1.057,5.813A10.344,10.344,0,0,0,3.963,43.6a10.344,10.344,0,0,0,4.228,2.642A16.312,16.312,0,0,0,14,47.3c2.378.264,3.435.264,9.776.264s7.4,0,9.776-.264a16.312,16.312,0,0,0,5.813-1.057,11.086,11.086,0,0,0,6.87-6.87A16.312,16.312,0,0,0,47.3,33.557c0-2.642.264-3.435.264-9.776s0-7.4-.264-9.776a16.312,16.312,0,0,0-1.057-5.813A10.344,10.344,0,0,0,43.6,3.963a10.344,10.344,0,0,0-4.228-2.642A16.312,16.312,0,0,0,33.557.264C31.178,0,30.122,0,23.78,0m0,11.626A11.959,11.959,0,0,0,11.626,23.78,12.154,12.154,0,1,0,23.78,11.626m0,20.081a7.785,7.785,0,0,1-7.927-7.927,7.785,7.785,0,0,1,7.927-7.927,7.785,7.785,0,0,1,7.927,7.927,7.785,7.785,0,0,1-7.927,7.927M36.463,8.191A2.906,2.906,0,1,0,39.369,11.1a2.932,2.932,0,0,0-2.906-2.906" fill="#fff" fill-rule="evenodd"/>
</svg>
