<svg xmlns="http://www.w3.org/2000/svg" width="27.296" height="17.539" viewBox="0 0 27.296 17.539">
  <g id="icon_footer_customerservice" transform="translate(160.8 -468.19)">
    <path id="Path_41" data-name="Path 41" d="M-133.946,468.19c-.4.379-.715.676-1.03.97q-4.846,4.521-9.692,9.043a1.794,1.794,0,0,1-2.881-.007q-5.072-4.74-10.152-9.47a5.048,5.048,0,0,0-.543-.388l.118-.148Z" transform="translate(-1.045 0)" fill="#fff"/>
    <path id="Path_42" data-name="Path 42" d="M-133.935,492.535h-24.18l7.657-7.657c.534.5,1.155,1.085,1.785,1.663a3.636,3.636,0,0,0,5.229.011c.632-.577,1.253-1.167,1.826-1.7Z" transform="translate(-1.097 -6.806)" fill="#fff"/>
    <path id="Path_43" data-name="Path 43" d="M-153.182,477.411l-7.618,7.623V470.3Z" transform="translate(0 -0.864)" fill="#fff"/>
    <path id="Path_44" data-name="Path 44" d="M-127.541,477.429l7.624-7.114v14.743Z" transform="translate(-13.587 -0.868)" fill="#fff"/>
  </g>
</svg>
