<svg xmlns="http://www.w3.org/2000/svg" width="37.158" height="37.158" viewBox="0 0 37.158 37.158">
  <path id="icon_search_searchbar" d="M59.561,54.973a5.024,5.024,0,0,0-3.616,3.592,1.652,1.652,0,0,1-3.278-.289,7.412,7.412,0,0,1,2.361-4.351,6.817,6.817,0,0,1,4.244-2.254,1.678,1.678,0,0,1,1.651,1.676A1.657,1.657,0,0,1,59.561,54.973Zm22.7,21.649a3.278,3.278,0,1,1-4.632,4.64L68.14,71.784a14.455,14.455,0,1,1,4.639-4.64ZM70.832,59.514A10.321,10.321,0,1,0,60.511,69.835,10.325,10.325,0,0,0,70.832,59.514Z" transform="translate(-46.062 -45.065)" fill="#707070" fill-rule="evenodd"/>
</svg>
