<svg id="icon_home_safelydeal" xmlns="http://www.w3.org/2000/svg" width="91.805" height="113.548" viewBox="0 0 91.805 113.548">
  <path id="Path_204" data-name="Path 204" d="M2057.659-332.063a4.24,4.24,0,0,1-2.068-.54,83.747,83.747,0,0,1-28.684-25.828,85.444,85.444,0,0,1-12.452-28.458,93.022,93.022,0,0,1-2.124-32.487,4.237,4.237,0,0,1,3.432-3.54l2.526-.46a62.449,62.449,0,0,0,36.159-20.755,4.237,4.237,0,0,1,5.975-.46,4.2,4.2,0,0,1,.46.46,62.449,62.449,0,0,0,36.159,20.755l2.528.46a4.237,4.237,0,0,1,3.432,3.54,93.068,93.068,0,0,1-2.127,32.487,85.311,85.311,0,0,1-12.452,28.458,83.781,83.781,0,0,1-28.684,25.828A4.238,4.238,0,0,1,2057.659-332.063Zm-37.233-83.1a89.9,89.9,0,0,0,2.345,26.605,76.836,76.836,0,0,0,11.24,25.5,74.585,74.585,0,0,0,23.648,21.865,74.638,74.638,0,0,0,23.758-22.034,76.9,76.9,0,0,0,11.2-25.648,89.4,89.4,0,0,0,2.277-26.3,71,71,0,0,1-37.238-19.944A71.006,71.006,0,0,1,2020.427-415.167Z" transform="translate(-2011.763 445.611)" fill="#0068bf"/>
  <path id="Path_205" data-name="Path 205" d="M2136.038-268.7a4.237,4.237,0,0,1-3.39-1.695l-10.8-14.407a4.238,4.238,0,0,1,.847-5.932,4.237,4.237,0,0,1,5.932.847l7.254,9.673,15.687-22.882a4.241,4.241,0,0,1,5.9-1.095,4.241,4.241,0,0,1,1.094,5.9h0l-19.026,27.769a4.238,4.238,0,0,1-3.407,1.825Z" transform="translate(-2090.142 344.676)" fill="#0068bf"/>
</svg>
