<svg xmlns="http://www.w3.org/2000/svg" width="113.187" height="113.171" viewBox="0 0 113.187 113.171">
  <path id="icon_home_enjoytime" d="M2650.973-424H2639.84v-9.014a11.931,11.931,0,0,0-2.555-7.38,11.932,11.932,0,0,0-16.756-2l-21.913,17.24-21.916-17.24a11.933,11.933,0,0,0-7.375-2.553,11.932,11.932,0,0,0-11.934,11.932V-424h-11.13a4.237,4.237,0,0,0-4.237,4.237v22.775a4.237,4.237,0,0,0,4.237,4.237h3.418v56.736a4.238,4.238,0,0,0,4.238,4.237h89.4a4.237,4.237,0,0,0,4.237-4.237v-56.736h3.418a4.237,4.237,0,0,0,4.237-4.237v-22.775A4.237,4.237,0,0,0,2650.973-424Zm-25.2-11.732a3.458,3.458,0,0,1,2.139-.741,3.458,3.458,0,0,1,3.457,3.458V-424h-20.506Zm-59.9,2.718a3.454,3.454,0,0,1,.741-2.143,3.455,3.455,0,0,1,4.852-.575L2586.375-424h-20.509ZM2550.5-415.521h96.237v14.3H2550.5Zm88.581,75.273h-80.926v-52.5h80.926v52.5Z" transform="translate(-2542.024 444.944)" fill="#0068bf"/>
</svg>
