<svg xmlns="http://www.w3.org/2000/svg" width="113.563" height="112.76" viewBox="0 0 113.563 112.76">
  <g id="icon_home_simplydeal" transform="translate(0 0)">
    <path id="Path_201" data-name="Path 201" d="M1602.556-424.989H1597v-10.427a4.238,4.238,0,0,0-4.237-4.237H1564.1v-1.72a4.237,4.237,0,0,0-4.237-4.237h-27.684a4.238,4.238,0,0,0-4.237,4.237v16.385h-10.452l-1.158-9.822a4.237,4.237,0,0,0-4.209-3.737h-14.653a4.237,4.237,0,0,0-4.237,4.237,4.237,4.237,0,0,0,4.237,4.237h10.89l1.172,9.771v.116l5.161,43.439c0,.012,0,.023.006.036l1.675,14.089a4.238,4.238,0,0,0,4.206,3.737h66.88a4.238,4.238,0,0,0,4.238-4.237,4.238,4.238,0,0,0-4.238-4.237h-63.115l-.672-5.65h71.5a4.237,4.237,0,0,0,4.178-3.528l7.381-43.5a4.227,4.227,0,0,0,.06-.71A4.237,4.237,0,0,0,1602.556-424.989Zm-14.029-6.189v6.189H1564.1v-6.189Zm-52.111-5.958h19.209v12.147h-19.209Zm55.177,55.651h-68.927l-1.446-12.157-2.717-22.872h79.022Z" transform="translate(-1493.231 445.611)" fill="#0068bf"/>
    <path id="Path_202" data-name="Path 202" d="M1591.8-131.451a12.006,12.006,0,0,0-12.006,12.006,12.006,12.006,0,0,0,12.006,12.006,12.02,12.02,0,0,0,12.006-12.006A12.006,12.006,0,0,0,1591.8-131.451Zm0,15.537a3.531,3.531,0,0,1-3.531-3.531,3.531,3.531,0,0,1,3.531-3.531,3.534,3.534,0,0,1,3.531,3.531A3.531,3.531,0,0,1,1591.8-115.914Z" transform="translate(-1555.338 220.199)" fill="#0068bf"/>
    <path id="Path_203" data-name="Path 203" d="M1758.507-131.451a12.006,12.006,0,0,0-12.006,12.006,12.006,12.006,0,0,0,12.006,12.006,12.02,12.02,0,0,0,12.006-12.006A12.006,12.006,0,0,0,1758.507-131.451Zm0,15.537a3.531,3.531,0,0,1-3.531-3.531,3.531,3.531,0,0,1,3.531-3.531,3.534,3.534,0,0,1,3.531,3.531A3.531,3.531,0,0,1,1758.507-115.914Z" transform="translate(-1674.954 220.199)" fill="#0068bf"/>
  </g>
</svg>
