<svg xmlns="http://www.w3.org/2000/svg" width="91" height="117.864" viewBox="0 0 91 117.864">
  <g id="icon_sell_step1" transform="translate(-109.26 -47.19)">
    <path id="Path_207" data-name="Path 207" d="M195.856,237.187H113.649a4.389,4.389,0,0,1-4.389-4.389V153.549a4.389,4.389,0,0,1,4.389-4.389h82.222a4.389,4.389,0,0,1,4.389,4.389V232.8a4.389,4.389,0,0,1-4.389,4.389Zm-77.818-8.778h73.444V157.938H118.038Z" transform="translate(0 -72.133)" fill="#fff"/>
    <path id="Path_208" data-name="Path 208" d="M234.832,97.252a4.389,4.389,0,0,1-4.389-4.389V66.616a10.411,10.411,0,0,0-20.819-.349q0,.175,0,.349V92.863a4.389,4.389,0,0,1-8.778,0h0V66.616a19.189,19.189,0,0,1,38.375-.474q0,.237,0,.474V92.863A4.389,4.389,0,0,1,234.832,97.252Z" transform="translate(-64.787)" fill="#fff"/>
  </g>
</svg>
