<svg xmlns="http://www.w3.org/2000/svg" width="47.493" height="36.979" viewBox="0 0 47.493 36.979">
  <path id="icon_header_message" d="M888.181,1073.767a1.591,1.591,0,0,1-1.59-1.591v-6.818h-4.083a5.415,5.415,0,0,1-5.409-5.409V1042.2a5.415,5.415,0,0,1,5.409-5.409h36.675a5.415,5.415,0,0,1,5.409,5.409v17.753a5.415,5.415,0,0,1-5.409,5.409H897.248l-7.943,7.942A1.589,1.589,0,0,1,888.181,1073.767Zm-5.673-33.8a2.23,2.23,0,0,0-2.227,2.227v17.753a2.23,2.23,0,0,0,2.227,2.227h5.674a1.591,1.591,0,0,1,1.591,1.591v4.568l5.692-5.692a1.589,1.589,0,0,1,1.125-.466h22.593a2.23,2.23,0,0,0,2.227-2.227V1042.2a2.23,2.23,0,0,0-2.227-2.227Z" transform="translate(-877.098 -1036.787)" fill="#fff"/>
</svg>
