<svg xmlns="http://www.w3.org/2000/svg" width="114.964" height="114.988" viewBox="0 0 114.964 114.988">
  <g id="icon_findseller_step4" transform="translate(-939.141 -457.246)">
    <path id="Path_52" data-name="Path 52" d="M977.586,438.155A57.494,57.494,0,1,1,920.054,495.6,57.6,57.6,0,0,1,977.586,438.155Zm-.084,10.494a47,47,0,1,0,47.024,46.967A47.107,47.107,0,0,0,977.5,448.648Z" transform="translate(19.088 19.092)" fill="#fff"/>
    <path id="Path_53" data-name="Path 53" d="M1085.6,628.679c6.036-6.037,11.976-11.975,17.911-17.917a5.691,5.691,0,0,1,4.158-2.013,5.021,5.021,0,0,1,4.777,3.006,4.926,4.926,0,0,1-.575,5.4,9.963,9.963,0,0,1-.984,1.086q-10.5,10.515-21.016,21.023c-2.859,2.858-5.68,2.879-8.516.053-3.467-3.453-6.953-6.888-10.369-10.391-2.782-2.854-2.072-7.031,1.392-8.652a5.056,5.056,0,0,1,5.935,1.188c2.131,2.078,4.215,4.2,6.322,6.306C1084.917,628.052,1085.217,628.321,1085.6,628.679Z" transform="translate(-93.547 -109.679)" fill="#fff"/>
  </g>
</svg>
