<svg xmlns="http://www.w3.org/2000/svg" width="20" height="30" viewBox="0 0 20 30">
  <g id="icon_chat_microphone_on" transform="translate(-6 -1)">
    <path id="Path_191" data-name="Path 191" d="M16,27A10,10,0,0,1,6,17a1,1,0,0,1,2,0,8,8,0,0,0,16,0,1,1,0,0,1,2,0A10,10,0,0,1,16,27Z" fill="#707070"/>
    <path id="Path_192" data-name="Path 192" d="M16,31a1,1,0,0,1-1-1V26a1,1,0,0,1,2,0v4A1,1,0,0,1,16,31Z" fill="#707070"/>
    <path id="Path_193" data-name="Path 193" d="M16,23a6,6,0,0,1-6-6V7A6,6,0,0,1,22,7V17A6,6,0,0,1,16,23ZM16,3a4,4,0,0,0-4,4V17a4,4,0,0,0,8,0V7A4,4,0,0,0,16,3Z" fill="#707070"/>
  </g>
</svg>
