<svg xmlns="http://www.w3.org/2000/svg" width="34.034" height="24.686" viewBox="0 0 34.034 24.686">
  <path id="icon_header_point" d="M-26.754,645.978c0,1.137.048,2.277-.012,3.411a6.122,6.122,0,0,1-1.8,3.882,13.5,13.5,0,0,1-5.119,3.28,26.711,26.711,0,0,1-8.637,1.713,29.426,29.426,0,0,1-9.59-1.07,15.615,15.615,0,0,1-6.613-3.53,6.666,6.666,0,0,1-2.24-5.2c.046-1.671.05-3.346,0-5.017a6.744,6.744,0,0,1,2.561-5.5,16.8,16.8,0,0,1,7.142-3.454,30.3,30.3,0,0,1,10.143-.744,24.448,24.448,0,0,1,8.519,2.182,11.343,11.343,0,0,1,4.492,3.529,6.053,6.053,0,0,1,1.173,3.674c-.009.95,0,1.9,0,2.85Zm-17.02-9.18A21.847,21.847,0,0,0-54.3,639.218a7.084,7.084,0,0,0-2.65,2.214,2.443,2.443,0,0,0,0,2.92,6.187,6.187,0,0,0,1.9,1.761,17.867,17.867,0,0,0,6.98,2.416,28.137,28.137,0,0,0,7.313.174A21.434,21.434,0,0,0-34,646.99a7.854,7.854,0,0,0,3.269-2.379,3.708,3.708,0,0,0,.628-1.4,2.685,2.685,0,0,0-.962-2.431c-1.662-1.715-4.082-2.548-6.34-3.143A25.933,25.933,0,0,0-43.774,636.8Zm13.7,11.8c-6.05,3.785-12.608,4.135-19.419,3.11v1.912c0,.807,0,.793.785.932a28.845,28.845,0,0,0,8.267.246,20.931,20.931,0,0,0,6.475-1.692A8.941,8.941,0,0,0-30.923,651,2.958,2.958,0,0,0-30.074,648.6ZM-54.427,650.2c0,.789,0,1.524,0,2.258a.307.307,0,0,0,.1.235c.478.245.965.472,1.512.735,0-.867.006-1.627-.008-2.388a.356.356,0,0,0-.179-.259C-53.445,650.58-53.9,650.405-54.427,650.2Z" transform="translate(60.769 -633.612)" fill="#f6bf59"/>
</svg>
